<?xml version="1.0" encoding="UTF-8" standalone="no"?>
<!-- Created with Inkscape (http://www.inkscape.org/) -->

<svg
   width="210mm"
   height="297mm"
   viewBox="0 0 210 297"
   version="1.1"
   id="svg1"
   inkscape:version="1.3.2 (091e20e, 2023-11-25, custom)"
   sodipodi:docname="mock-mal-logo.svg"
   xmlns:inkscape="http://www.inkscape.org/namespaces/inkscape"
   xmlns:sodipodi="http://sodipodi.sourceforge.net/DTD/sodipodi-0.dtd"
   xmlns="http://www.w3.org/2000/svg"
   xmlns:svg="http://www.w3.org/2000/svg">
  <sodipodi:namedview
     id="namedview1"
     pagecolor="#ffffff"
     bordercolor="#000000"
     borderopacity="0.25"
     inkscape:showpageshadow="2"
     inkscape:pageopacity="0.0"
     inkscape:pagecheckerboard="0"
     inkscape:deskcolor="#d1d1d1"
     inkscape:document-units="mm"
     inkscape:zoom="1.0544998"
     inkscape:cx="280.70181"
     inkscape:cy="482.21915"
     inkscape:window-width="1920"
     inkscape:window-height="1051"
     inkscape:window-x="-9"
     inkscape:window-y="-9"
     inkscape:window-maximized="1"
     inkscape:current-layer="layer1" />
  <defs
     id="defs1">
    <linearGradient
       id="swatch12"
       inkscape:swatch="solid">
      <stop
         style="stop-color:#000000;stop-opacity:1;"
         offset="0"
         id="stop12" />
    </linearGradient>
    <linearGradient
       id="swatch6"
       inkscape:swatch="solid">
      <stop
         style="stop-color:#1f1f8e;stop-opacity:1;"
         offset="0"
         id="stop6" />
    </linearGradient>
    <inkscape:perspective
       sodipodi:type="inkscape:persp3d"
       inkscape:vp_x="-34.064515 : 83.919353 : 1"
       inkscape:vp_y="0 : 1000 : 0"
       inkscape:vp_z="175.93548 : 83.919353 : 1"
       inkscape:persp3d-origin="70.935485 : 34.419353 : 1"
       id="perspective25" />
    <inkscape:perspective
       sodipodi:type="inkscape:persp3d"
       inkscape:vp_x="-29.451613 : 205.62903 : 1"
       inkscape:vp_y="0 : 1000 : 0"
       inkscape:vp_z="180.5484 : 205.62903 : 1"
       inkscape:persp3d-origin="75.548392 : 156.12903 : 1"
       id="perspective24" />
    <inkscape:perspective
       sodipodi:type="inkscape:persp3d"
       inkscape:vp_x="77.709676 : 228.33871 : 1"
       inkscape:vp_y="0 : 1000 : 0"
       inkscape:vp_z="287.70968 : 228.33871 : 1"
       inkscape:persp3d-origin="182.70968 : 178.83871 : 1"
       id="perspective1" />
  </defs>
  <g
     inkscape:label="Layer 1"
     inkscape:groupmode="layer"
     id="layer1">
    <path
       style="fill:#2a446f;fill-opacity:1;stroke-width:0.249577"
       d="m 22.074991,123.08473 c 0.450386,48.25724 26.347498,62.18716 26.347498,62.18716 l 11.709998,-9.45245 c 0,0 -47.515569,-63.43089 -20.942878,-45.76974 26.572685,17.66114 28.149029,38.05853 28.149029,38.05853 l 21.168074,-0.49749 c 0,0 -40.984996,-74.127104 5.62981,-19.15363 46.614798,54.97343 0,23.1336 0,23.1336 l -1.801529,24.12863 c 0,0 60.126347,20.14864 43.912497,-9.20371 -16.21384,-29.35234 -52.695002,-72.38585 -52.695002,-72.38585 0,0 -8.106929,-10.94494 -17.565001,1.99001 -9.458074,12.93492 -5.179418,14.67615 -5.179418,14.67615 0,0 -40.759809,-39.302274 -38.733078,-7.71121 z"
       id="path36" />
    <path
       style="fill:#f9f9f9;fill-opacity:0;stroke:none;stroke-width:0.23705;stroke-opacity:1"
       d="m 132.49633,172.13177 c -3.68834,-1.71153 -6.9074,-4.96246 -10.68356,-10.78935 -2.84859,-4.39558 -5.12498,-8.76339 -8.12605,-15.59171 l -1.42377,-3.23953 2.87198,-0.79258 c 9.60166,-2.64977 16.15382,-7.63546 18.27864,-13.9086 1.51166,-4.46296 0.87756,-9.84696 -1.41017,-11.97334 -3.21795,-2.99095 -9.5403,-3.3891 -18.61294,-1.17209 -3.30125,0.80669 -9.02461,2.71257 -12.49125,4.15953 -1.482491,0.6188 -2.718284,1.09982 -2.74625,1.06892 -0.107449,-0.1187 -3.925506,-16.64233 -3.860199,-16.70592 0.03789,-0.0371 9.594589,-1.48782 21.237029,-3.224197 11.64246,-1.736367 21.2759,-3.193427 21.40765,-3.237907 0.15964,-0.0539 -0.0179,-2.12526 -0.53286,-6.21329 -0.42486,-3.372829 -0.73533,-6.172361 -0.68997,-6.221168 0.1871,-0.201254 16.92498,-3.601976 17.10926,-3.476172 0.11017,0.07526 0.20046,1.632473 0.20046,3.460475 0,11.705785 1.88963,26.941049 4.38174,35.328049 2.01711,6.78839 4.38531,10.65189 7.52641,12.2788 1.20459,0.62392 1.43921,0.65511 4.86867,0.64803 3.02491,-0.006 3.90412,-0.0976 5.47928,-0.57016 5.1258,-1.5373 10.65477,-5.20708 15.18211,-10.07695 0.95989,-1.0325 1.74524,-1.77454 1.74524,-1.64901 0,0.12556 0.456,4.41248 1.01337,9.52649 0.55733,5.11402 1.01336,9.48203 1.01336,9.70668 0,0.33171 -0.24468,0.40848 -1.30159,0.40848 -0.71586,0 -2.56525,0.17144 -4.10975,0.38097 -10.66285,1.44649 -19.18795,4.11283 -27.01672,8.44983 -7.92063,4.38787 -13.29308,9.59922 -17.87371,17.33772 -1.61971,2.73637 -3.60767,4.94091 -5.2673,5.84112 -1.82547,0.99021 -4.34956,1.09121 -6.16911,0.24688 z m 0.51522,-6.20009 c 0.18736,-0.17103 1.04275,-1.2608 1.90088,-2.42173 1.27131,-1.7199 9.58333,-12.38494 11.16189,-14.32166 0.4096,-0.50255 0.40083,-0.55112 -0.44979,-2.4875 -1.19949,-2.73053 -2.43696,-4.37884 -3.88643,-5.17671 -1.9571,-1.07727 -3.27197,-0.82713 -5.49061,1.04461 -0.74315,0.62693 -2.66854,2.24809 -4.27866,3.60262 -5.05891,4.25572 -6.487,6.18216 -6.46633,8.72292 0.0314,3.88295 4.43938,11.34289 6.70477,11.34746 0.25503,5.3e-4 0.61694,-0.13897 0.80428,-0.31001 z"
       id="path1" />
    <path
       style="fill:#f9f9f9;fill-opacity:0;stroke:none;stroke-width:0.23705;stroke-opacity:1"
       d="m 132.49633,172.13177 c -3.68834,-1.71153 -6.9074,-4.96246 -10.68356,-10.78935 -2.84859,-4.39558 -5.12498,-8.76339 -8.12605,-15.59171 l -1.42377,-3.23953 2.87198,-0.79258 c 9.60166,-2.64977 16.15382,-7.63546 18.27864,-13.9086 1.51166,-4.46296 0.87756,-9.84696 -1.41017,-11.97334 -3.21795,-2.99095 -9.5403,-3.3891 -18.61294,-1.17209 -3.30125,0.80669 -9.02461,2.71257 -12.49125,4.15953 -1.482491,0.6188 -2.718284,1.09982 -2.74625,1.06892 -0.107449,-0.1187 -3.925506,-16.64233 -3.860199,-16.70592 0.03789,-0.0371 9.594589,-1.48782 21.237029,-3.224197 11.64246,-1.736367 21.2759,-3.193427 21.40765,-3.237907 0.15964,-0.0539 -0.0179,-2.12526 -0.53286,-6.21329 -0.42486,-3.372829 -0.73533,-6.172361 -0.68997,-6.221168 0.1871,-0.201254 16.92498,-3.601976 17.10926,-3.476172 0.11017,0.07526 0.20046,1.632473 0.20046,3.460475 0,11.705785 1.88963,26.941049 4.38174,35.328049 2.01711,6.78839 4.38531,10.65189 7.52641,12.2788 1.20459,0.62392 1.43921,0.65511 4.86867,0.64803 3.02491,-0.006 3.90412,-0.0976 5.47928,-0.57016 5.1258,-1.5373 10.65477,-5.20708 15.18211,-10.07695 0.95989,-1.0325 1.74524,-1.77454 1.74524,-1.64901 0,0.12556 0.456,4.41248 1.01337,9.52649 0.55733,5.11402 1.01336,9.48203 1.01336,9.70668 0,0.33171 -0.24468,0.40848 -1.30159,0.40848 -0.71586,0 -2.56525,0.17144 -4.10975,0.38097 -10.66285,1.44649 -19.18795,4.11283 -27.01672,8.44983 -7.92063,4.38787 -13.29308,9.59922 -17.87371,17.33772 -1.61971,2.73637 -3.60767,4.94091 -5.2673,5.84112 -1.82547,0.99021 -4.34956,1.09121 -6.16911,0.24688 z m 0.51522,-6.20009 c 0.18736,-0.17103 1.04275,-1.2608 1.90088,-2.42173 1.27131,-1.7199 9.58333,-12.38494 11.16189,-14.32166 0.4096,-0.50255 0.40083,-0.55112 -0.44979,-2.4875 -1.19949,-2.73053 -2.43696,-4.37884 -3.88643,-5.17671 -1.9571,-1.07727 -3.27197,-0.82713 -5.49061,1.04461 -0.74315,0.62693 -2.66854,2.24809 -4.27866,3.60262 -5.05891,4.25572 -6.487,6.18216 -6.46633,8.72292 0.0314,3.88295 4.43938,11.34289 6.70477,11.34746 0.25503,5.3e-4 0.61694,-0.13897 0.80428,-0.31001 z"
       id="path2" />
    <path
       style="fill:#f9f9f9;fill-opacity:0;stroke:none;stroke-width:0.23705;stroke-opacity:1"
       d="m 132.49633,172.13177 c -3.68834,-1.71153 -6.9074,-4.96246 -10.68356,-10.78935 -2.84859,-4.39558 -5.12498,-8.76339 -8.12605,-15.59171 l -1.42377,-3.23953 2.87198,-0.79258 c 9.60166,-2.64977 16.15382,-7.63546 18.27864,-13.9086 1.51166,-4.46296 0.87756,-9.84696 -1.41017,-11.97334 -3.21795,-2.99095 -9.5403,-3.3891 -18.61294,-1.17209 -3.30125,0.80669 -9.02461,2.71257 -12.49125,4.15953 -1.482491,0.6188 -2.718284,1.09982 -2.74625,1.06892 -0.107449,-0.1187 -3.925506,-16.64233 -3.860199,-16.70592 0.03789,-0.0371 9.594589,-1.48782 21.237029,-3.224197 11.64246,-1.736367 21.2759,-3.193427 21.40765,-3.237907 0.15964,-0.0539 -0.0179,-2.12526 -0.53286,-6.21329 -0.42486,-3.372829 -0.73533,-6.172361 -0.68997,-6.221168 0.1871,-0.201254 16.92498,-3.601976 17.10926,-3.476172 0.11017,0.07526 0.20046,1.632473 0.20046,3.460475 0,11.705785 1.88963,26.941049 4.38174,35.328049 2.01711,6.78839 4.38531,10.65189 7.52641,12.2788 1.20459,0.62392 1.43921,0.65511 4.86867,0.64803 3.02491,-0.006 3.90412,-0.0976 5.47928,-0.57016 5.1258,-1.5373 10.65477,-5.20708 15.18211,-10.07695 0.95989,-1.0325 1.74524,-1.77454 1.74524,-1.64901 0,0.12556 0.456,4.41248 1.01337,9.52649 0.55733,5.11402 1.01336,9.48203 1.01336,9.70668 0,0.33171 -0.24468,0.40848 -1.30159,0.40848 -0.71586,0 -2.56525,0.17144 -4.10975,0.38097 -10.66285,1.44649 -19.18795,4.11283 -27.01672,8.44983 -7.92063,4.38787 -13.29308,9.59922 -17.87371,17.33772 -1.61971,2.73637 -3.60767,4.94091 -5.2673,5.84112 -1.82547,0.99021 -4.34956,1.09121 -6.16911,0.24688 z m 0.51522,-6.20009 c 0.18736,-0.17103 1.04275,-1.2608 1.90088,-2.42173 1.27131,-1.7199 9.58333,-12.38494 11.16189,-14.32166 0.4096,-0.50255 0.40083,-0.55112 -0.44979,-2.4875 -1.19949,-2.73053 -2.43696,-4.37884 -3.88643,-5.17671 -1.9571,-1.07727 -3.27197,-0.82713 -5.49061,1.04461 -0.74315,0.62693 -2.66854,2.24809 -4.27866,3.60262 -5.05891,4.25572 -6.487,6.18216 -6.46633,8.72292 0.0314,3.88295 4.43938,11.34289 6.70477,11.34746 0.25503,5.3e-4 0.61694,-0.13897 0.80428,-0.31001 z"
       id="path3" />
    <path
       style="fill:#f9f9f9;fill-opacity:0;stroke:none;stroke-width:0.23705;stroke-opacity:1"
       d="m 132.49633,172.13177 c -3.68834,-1.71153 -6.9074,-4.96246 -10.68356,-10.78935 -2.84859,-4.39558 -5.12498,-8.76339 -8.12605,-15.59171 l -1.42377,-3.23953 2.87198,-0.79258 c 9.60166,-2.64977 16.15382,-7.63546 18.27864,-13.9086 1.51166,-4.46296 0.87756,-9.84696 -1.41017,-11.97334 -3.21795,-2.99095 -9.5403,-3.3891 -18.61294,-1.17209 -3.30125,0.80669 -9.02461,2.71257 -12.49125,4.15953 -1.482491,0.6188 -2.718284,1.09982 -2.74625,1.06892 -0.107449,-0.1187 -3.925506,-16.64233 -3.860199,-16.70592 0.03789,-0.0371 9.594589,-1.48782 21.237029,-3.224197 11.64246,-1.736367 21.2759,-3.193427 21.40765,-3.237907 0.15964,-0.0539 -0.0179,-2.12526 -0.53286,-6.21329 -0.42486,-3.372829 -0.73533,-6.172361 -0.68997,-6.221168 0.1871,-0.201254 16.92498,-3.601976 17.10926,-3.476172 0.11017,0.07526 0.20046,1.632473 0.20046,3.460475 0,11.705785 1.88963,26.941049 4.38174,35.328049 2.01711,6.78839 4.38531,10.65189 7.52641,12.2788 1.20459,0.62392 1.43921,0.65511 4.86867,0.64803 3.02491,-0.006 3.90412,-0.0976 5.47928,-0.57016 5.1258,-1.5373 10.65477,-5.20708 15.18211,-10.07695 0.95989,-1.0325 1.74524,-1.77454 1.74524,-1.64901 0,0.12556 0.456,4.41248 1.01337,9.52649 0.55733,5.11402 1.01336,9.48203 1.01336,9.70668 0,0.33171 -0.24468,0.40848 -1.30159,0.40848 -0.71586,0 -2.56525,0.17144 -4.10975,0.38097 -10.66285,1.44649 -19.18795,4.11283 -27.01672,8.44983 -7.92063,4.38787 -13.29308,9.59922 -17.87371,17.33772 -1.61971,2.73637 -3.60767,4.94091 -5.2673,5.84112 -1.82547,0.99021 -4.34956,1.09121 -6.16911,0.24688 z m 0.51522,-6.20009 c 0.18736,-0.17103 1.04275,-1.2608 1.90088,-2.42173 1.27131,-1.7199 9.58333,-12.38494 11.16189,-14.32166 0.4096,-0.50255 0.40083,-0.55112 -0.44979,-2.4875 -1.19949,-2.73053 -2.43696,-4.37884 -3.88643,-5.17671 -1.9571,-1.07727 -3.27197,-0.82713 -5.49061,1.04461 -0.74315,0.62693 -2.66854,2.24809 -4.27866,3.60262 -5.05891,4.25572 -6.487,6.18216 -6.46633,8.72292 0.0314,3.88295 4.43938,11.34289 6.70477,11.34746 0.25503,5.3e-4 0.61694,-0.13897 0.80428,-0.31001 z"
       id="path4" />
    <path
       style="fill:#f9f9f9;fill-opacity:0;stroke:none;stroke-width:0.23705;stroke-opacity:1"
       d="m 132.49633,172.13177 c -3.68834,-1.71153 -6.9074,-4.96246 -10.68356,-10.78935 -2.84859,-4.39558 -5.12498,-8.76339 -8.12605,-15.59171 l -1.42377,-3.23953 2.87198,-0.79258 c 9.60166,-2.64977 16.15382,-7.63546 18.27864,-13.9086 1.51166,-4.46296 0.87756,-9.84696 -1.41017,-11.97334 -3.21795,-2.99095 -9.5403,-3.3891 -18.61294,-1.17209 -3.30125,0.80669 -9.02461,2.71257 -12.49125,4.15953 -1.482491,0.6188 -2.718284,1.09982 -2.74625,1.06892 -0.107449,-0.1187 -3.925506,-16.64233 -3.860199,-16.70592 0.03789,-0.0371 9.594589,-1.48782 21.237029,-3.224197 11.64246,-1.736367 21.2759,-3.193427 21.40765,-3.237907 0.15964,-0.0539 -0.0179,-2.12526 -0.53286,-6.21329 -0.42486,-3.372829 -0.73533,-6.172361 -0.68997,-6.221168 0.1871,-0.201254 16.92498,-3.601976 17.10926,-3.476172 0.11017,0.07526 0.20046,1.632473 0.20046,3.460475 0,11.705785 1.88963,26.941049 4.38174,35.328049 2.01711,6.78839 4.38531,10.65189 7.52641,12.2788 1.20459,0.62392 1.43921,0.65511 4.86867,0.64803 3.02491,-0.006 3.90412,-0.0976 5.47928,-0.57016 5.1258,-1.5373 10.65477,-5.20708 15.18211,-10.07695 0.95989,-1.0325 1.74524,-1.77454 1.74524,-1.64901 0,0.12556 0.456,4.41248 1.01337,9.52649 0.55733,5.11402 1.01336,9.48203 1.01336,9.70668 0,0.33171 -0.24468,0.40848 -1.30159,0.40848 -0.71586,0 -2.56525,0.17144 -4.10975,0.38097 -10.66285,1.44649 -19.18795,4.11283 -27.01672,8.44983 -7.92063,4.38787 -13.29308,9.59922 -17.87371,17.33772 -1.61971,2.73637 -3.60767,4.94091 -5.2673,5.84112 -1.82547,0.99021 -4.34956,1.09121 -6.16911,0.24688 z m 0.51522,-6.20009 c 0.18736,-0.17103 1.04275,-1.2608 1.90088,-2.42173 1.27131,-1.7199 9.58333,-12.38494 11.16189,-14.32166 0.4096,-0.50255 0.40083,-0.55112 -0.44979,-2.4875 -1.19949,-2.73053 -2.43696,-4.37884 -3.88643,-5.17671 -1.9571,-1.07727 -3.27197,-0.82713 -5.49061,1.04461 -0.74315,0.62693 -2.66854,2.24809 -4.27866,3.60262 -5.05891,4.25572 -6.487,6.18216 -6.46633,8.72292 0.0314,3.88295 4.43938,11.34289 6.70477,11.34746 0.25503,5.3e-4 0.61694,-0.13897 0.80428,-0.31001 z"
       id="path5" />
    <path
       style="fill:#f9f9f9;fill-opacity:0;stroke:none;stroke-width:0.23705;stroke-opacity:1"
       d="m 132.49633,172.13177 c -3.68834,-1.71153 -6.9074,-4.96246 -10.68356,-10.78935 -2.84859,-4.39558 -5.12498,-8.76339 -8.12605,-15.59171 l -1.42377,-3.23953 2.87198,-0.79258 c 9.60166,-2.64977 16.15382,-7.63546 18.27864,-13.9086 1.51166,-4.46296 0.87756,-9.84696 -1.41017,-11.97334 -3.21795,-2.99095 -9.5403,-3.3891 -18.61294,-1.17209 -3.30125,0.80669 -9.02461,2.71257 -12.49125,4.15953 -1.482491,0.6188 -2.718284,1.09982 -2.74625,1.06892 -0.107449,-0.1187 -3.925506,-16.64233 -3.860199,-16.70592 0.03789,-0.0371 9.594589,-1.48782 21.237029,-3.224197 11.64246,-1.736367 21.2759,-3.193427 21.40765,-3.237907 0.15964,-0.0539 -0.0179,-2.12526 -0.53286,-6.21329 -0.42486,-3.372829 -0.73533,-6.172361 -0.68997,-6.221168 0.1871,-0.201254 16.92498,-3.601976 17.10926,-3.476172 0.11017,0.07526 0.20046,1.632473 0.20046,3.460475 0,11.705785 1.88963,26.941049 4.38174,35.328049 2.01711,6.78839 4.38531,10.65189 7.52641,12.2788 1.20459,0.62392 1.43921,0.65511 4.86867,0.64803 3.02491,-0.006 3.90412,-0.0976 5.47928,-0.57016 5.1258,-1.5373 10.65477,-5.20708 15.18211,-10.07695 0.95989,-1.0325 1.74524,-1.77454 1.74524,-1.64901 0,0.12556 0.456,4.41248 1.01337,9.52649 0.55733,5.11402 1.01336,9.48203 1.01336,9.70668 0,0.33171 -0.24468,0.40848 -1.30159,0.40848 -0.71586,0 -2.56525,0.17144 -4.10975,0.38097 -10.66285,1.44649 -19.18795,4.11283 -27.01672,8.44983 -7.92063,4.38787 -13.29308,9.59922 -17.87371,17.33772 -1.61971,2.73637 -3.60767,4.94091 -5.2673,5.84112 -1.82547,0.99021 -4.34956,1.09121 -6.16911,0.24688 z m 0.51522,-6.20009 c 0.18736,-0.17103 1.04275,-1.2608 1.90088,-2.42173 1.27131,-1.7199 9.58333,-12.38494 11.16189,-14.32166 0.4096,-0.50255 0.40083,-0.55112 -0.44979,-2.4875 -1.19949,-2.73053 -2.43696,-4.37884 -3.88643,-5.17671 -1.9571,-1.07727 -3.27197,-0.82713 -5.49061,1.04461 -0.74315,0.62693 -2.66854,2.24809 -4.27866,3.60262 -5.05891,4.25572 -6.487,6.18216 -6.46633,8.72292 0.0314,3.88295 4.43938,11.34289 6.70477,11.34746 0.25503,5.3e-4 0.61694,-0.13897 0.80428,-0.31001 z"
       id="path6" />
    <path
       style="fill:#2a446f;fill-opacity:1;stroke:none;stroke-width:0.23705;stroke-opacity:1"
       d="m 139.07141,180.66483 c -3.68837,-1.71155 -6.90741,-4.96246 -10.68359,-10.78938 -2.84857,-4.39554 -5.12499,-8.76336 -8.12606,-15.59168 l -1.42377,-3.23954 2.872,-0.79259 c 9.60163,-2.64974 16.15382,-7.63543 18.27864,-13.90859 1.51167,-4.46291 0.87755,-9.84697 -1.41018,-11.97332 -3.21793,-2.99099 -9.54032,-3.38911 -18.61292,-1.17209 -3.30124,0.80668 -9.02463,2.71255 -12.49126,4.15953 -1.48249,0.61879 -2.71829,1.09978 -2.74625,1.06892 -0.10745,-0.1187 -3.92549,-16.64234 -3.8602,-16.70592 0.0379,-0.0371 9.5946,-1.48783 21.23705,-3.2242 11.64243,-1.73637 21.27589,-3.19343 21.40764,-3.2379 0.15964,-0.0539 -0.0179,-2.12526 -0.53288,-6.213295 -0.42487,-3.372833 -0.73533,-6.172368 -0.68997,-6.221174 0.18709,-0.201258 16.925,-3.601978 17.10928,-3.476173 0.11018,0.07525 0.20041,1.632474 0.20041,3.460474 0,11.705808 1.88967,26.941048 4.3818,35.328058 2.0171,6.78836 4.38526,10.65189 7.52639,12.27878 1.2046,0.62391 1.43919,0.65513 4.86866,0.64805 3.0249,-0.006 3.90414,-0.0977 5.47928,-0.57016 5.12581,-1.53733 10.65476,-5.2071 15.18213,-10.07695 0.95986,-1.03251 1.74521,-1.77455 1.74521,-1.64901 0,0.12556 0.45603,4.41246 1.01338,9.52649 0.55736,5.11401 1.01335,9.48202 1.01335,9.70668 0,0.3317 -0.24466,0.40849 -1.30158,0.40849 -0.71586,0 -2.56525,0.17142 -4.10975,0.38093 -10.66285,1.44652 -19.18793,4.11284 -27.01672,8.44984 -7.92062,4.38788 -13.29308,9.59922 -17.8737,17.33774 -1.61972,2.73637 -3.60767,4.94088 -5.26729,5.84111 -1.82547,0.99017 -4.3496,1.09119 -6.1691,0.24688 z m 0.51521,-6.2001 c 0.18734,-0.17101 1.04273,-1.26079 1.90087,-2.42173 1.2713,-1.71989 9.58333,-12.38492 11.16186,-14.32166 0.40961,-0.50253 0.40085,-0.55111 -0.44976,-2.48748 -1.19949,-2.73053 -2.43697,-4.37888 -3.88644,-5.17672 -1.9571,-1.07727 -3.27199,-0.82713 -5.49062,1.04462 -0.74313,0.62693 -2.66852,2.24811 -4.27865,3.60258 -5.05892,4.25576 -6.487,6.1822 -6.46633,8.72295 0.0315,3.88296 4.43941,11.3429 6.70479,11.34746 0.25499,5.3e-4 0.61692,-0.13897 0.80428,-0.31002 z"
       id="path7" />
  </g>
</svg>
